<?xml version="1.0" standalone="no"?>
<!DOCTYPE svg PUBLIC "-//W3C//DTD SVG 20010904//EN"
 "http://www.w3.org/TR/2001/REC-SVG-20010904/DTD/svg10.dtd">
<svg version="1.0" xmlns="http://www.w3.org/2000/svg"
 width="383.000000pt" height="383.000000pt" viewBox="0 0 383.000000 383.000000"
 preserveAspectRatio="xMidYMid meet">
<metadata>
Created by potrace 1.11, written by Peter Selinger 2001-2013
</metadata>
<g transform="translate(0.000000,383.000000) scale(0.100000,-0.100000)"
fill="#000000" stroke="none">
<path d="M1680 3775 c-428 -54 -800 -230 -1103 -524 -173 -168 -304 -347 -398
-547 -413 -874 -86 -1903 761 -2402 518 -305 1175 -345 1740 -105 493 209 892
639 1055 1137 275 840 -71 1738 -845 2194 -351 207 -798 298 -1210 247z m93
-1103 c223 -61 370 -202 422 -407 19 -76 19 -259 0 -345 -76 -331 -330 -559
-715 -640 -77 -17 -790 -26 -790 -11 0 6 81 314 181 684 99 369 185 689 190
710 l10 39 312 -4 c280 -4 320 -7 390 -26z m1237 22 c0 -4 -85 -325 -190 -714
-104 -389 -190 -710 -190 -714 0 -3 -72 -6 -161 -6 -125 0 -160 3 -157 13 3 6
90 330 194 719 l189 708 158 0 c86 0 157 -3 157 -6z"/>
<path d="M1316 2411 c-4 -5 -56 -193 -116 -418 -61 -224 -113 -416 -116 -427
-6 -17 2 -18 162 -13 116 3 188 9 229 21 199 56 338 188 390 370 24 83 17 235
-13 292 -66 127 -201 183 -444 184 -48 0 -89 -4 -92 -9z"/>
</g>
</svg>
